<svg width="93" height="64" viewBox="0 0 93 64" fill="none" xmlns="http://www.w3.org/2000/svg">
<mask id="mask0_4312_14" style="mask-type:luminance" maskUnits="userSpaceOnUse" x="0" y="0" width="93" height="64">
<path d="M0.300049 0.198486H92.7V63.6905H0.300049V0.198486Z" fill="white"/>
</mask>
<g mask="url(#mask0_4312_14)">
<path d="M85.3898 0.203003H7.73774C7.25409 0.205316 6.77524 0.251565 6.30362 0.344065C5.82959 0.436565 5.36999 0.57069 4.92484 0.751065C4.47968 0.929128 4.05618 1.1465 3.65434 1.4055C3.2549 1.6645 2.88434 1.95819 2.54265 2.28657C2.20337 2.61494 1.89778 2.97107 1.63068 3.35725C1.36359 3.74344 1.1374 4.15044 0.954525 4.57825C0.769244 5.00607 0.632087 5.44775 0.538244 5.90332C0.4444 6.35657 0.398682 6.81675 0.398682 7.27925V56.6442C0.398682 57.1067 0.446806 57.5646 0.54065 58.0178C0.634494 58.4711 0.774057 58.9104 0.959338 59.3359C1.14462 59.7638 1.37081 60.1684 1.6379 60.5546C1.90499 60.9385 2.20818 61.2923 2.54987 61.6207C2.89156 61.9468 3.26212 62.2381 3.66156 62.4948C4.06099 62.7538 4.48449 62.9689 4.92965 63.1469C5.37481 63.325 5.8344 63.4568 6.30603 63.5493C6.77765 63.6395 7.25409 63.6834 7.73774 63.6858H85.3898C85.8711 63.6834 86.3475 63.6395 86.8192 63.5493C87.2932 63.4568 87.7504 63.325 88.1955 63.1469C88.6407 62.9689 89.0642 62.7538 89.4636 62.4948C89.8655 62.2381 90.236 61.9468 90.5753 61.6207C90.917 61.2923 91.2202 60.9385 91.4897 60.5546C91.7568 60.1684 91.983 59.7638 92.1682 59.3359C92.3511 58.9104 92.4907 58.4711 92.5845 58.0178C92.6808 57.5646 92.7265 57.1067 92.7265 56.6442V7.27925C92.7289 6.81675 92.6808 6.35657 92.5893 5.90332C92.4955 5.44775 92.3559 5.00607 92.1731 4.57825C91.9878 4.15044 91.7616 3.74344 91.4945 3.35725C91.2274 2.97107 90.9242 2.61494 90.5825 2.28657C90.2432 1.95819 89.8727 1.6645 89.4708 1.4055C89.0714 1.1465 88.6479 0.929128 88.2003 0.751065C87.7552 0.57069 87.2956 0.436565 86.824 0.344065C86.3499 0.251565 85.8711 0.205316 85.3898 0.203003ZM3.8324 7.27925C3.8324 7.03182 3.85646 6.78669 3.90699 6.54619C3.95512 6.30338 4.02971 6.0675 4.12596 5.83857C4.22462 5.60963 4.34253 5.39225 4.4869 5.18644C4.62887 4.98063 4.79009 4.791 4.97056 4.61525C5.15103 4.4395 5.34834 4.28225 5.56249 4.1435C5.77665 4.00707 6.00043 3.88913 6.23865 3.79432C6.47446 3.69719 6.7199 3.6255 6.97256 3.57463C7.22521 3.52607 7.48028 3.50063 7.73774 3.49832H85.3898C85.6473 3.50063 85.9024 3.52607 86.1526 3.57463C86.4053 3.6255 86.6507 3.69719 86.8889 3.79432C87.1247 3.88913 87.3509 4.00707 87.5627 4.1435C87.7768 4.28225 87.9742 4.4395 88.1546 4.61525C88.3375 4.791 88.4987 4.98063 88.6407 5.18644C88.7826 5.39225 88.903 5.60963 88.9992 5.83857C89.0979 6.0675 89.1701 6.30338 89.2206 6.54619C89.2687 6.78669 89.2928 7.03182 89.2928 7.27925V16.002H3.8324V7.27925ZM85.3898 60.3951H7.73774C7.48028 60.3951 7.22762 60.3696 6.97496 60.3234C6.72471 60.2748 6.47928 60.2031 6.24346 60.1083C6.00765 60.0135 5.78146 59.8979 5.56971 59.7614C5.35556 59.625 5.15824 59.4701 4.97778 59.2966C4.79731 59.1232 4.63368 58.9336 4.49171 58.7301C4.34974 58.5243 4.22943 58.3092 4.13078 58.0826C4.03453 57.8536 3.95993 57.6201 3.9094 57.3796C3.85887 57.1391 3.83481 56.8939 3.8324 56.6488V19.3019H89.2928V56.6488C89.2928 56.8939 89.2663 57.1391 89.2158 57.3796C89.1676 57.6201 89.0931 57.8536 88.9944 58.0826C88.8957 58.3092 88.7754 58.5243 88.6335 58.7301C88.4915 58.9336 88.3303 59.1232 88.1474 59.2966C87.9669 59.4701 87.7696 59.625 87.5579 59.7614C87.3437 59.8979 87.1199 60.0135 86.8817 60.1083C86.6459 60.2031 86.4029 60.2748 86.1502 60.3234C85.9 60.3696 85.6449 60.3951 85.3898 60.3951Z" fill="#4ECCA3"/>
</g>
<path d="M39.4497 29.0885C39.2885 28.9336 39.1032 28.8157 38.8938 28.7324C38.6821 28.6468 38.4631 28.6052 38.2369 28.6052C38.0083 28.6052 37.7894 28.6468 37.5776 28.7324C37.3683 28.8157 37.183 28.9336 37.0218 29.0885L28.3039 37.4505C28.1427 37.6055 28.02 37.7835 27.9334 37.9847C27.8443 38.1882 27.801 38.3987 27.801 38.616C27.801 38.8334 27.8443 39.0438 27.9334 39.2473C28.02 39.4485 28.1427 39.6266 28.3039 39.7815L37.0218 48.1435C37.183 48.2915 37.3683 48.4072 37.5776 48.4881C37.787 48.5667 38.0035 48.606 38.2297 48.606C38.4559 48.6037 38.6701 48.5598 38.8794 48.4765C39.0863 48.3933 39.2692 48.2753 39.428 48.1227C39.5892 47.9701 39.712 47.7943 39.7986 47.5955C39.8852 47.3943 39.9309 47.1885 39.9333 46.9711C39.9333 46.756 39.8924 46.5479 39.8106 46.3467C39.7264 46.1455 39.6061 45.9675 39.4497 45.8125L31.947 38.616L39.4497 31.4195C39.6109 31.2646 39.736 31.0865 39.8226 30.8853C39.9093 30.6818 39.9526 30.4714 39.9526 30.254C39.9526 30.0343 39.9093 29.8239 39.8226 29.6227C39.736 29.4215 39.6109 29.2435 39.4497 29.0885Z" fill="white"/>
<path d="M50.5184 24.97C50.2971 24.9122 50.0757 24.896 49.8495 24.9237C49.6209 24.9492 49.4092 25.0162 49.2118 25.1249C49.0121 25.2336 48.8437 25.3747 48.7041 25.5458C48.5646 25.7192 48.4635 25.9112 48.4033 26.1216L41.418 50.2294C41.353 50.4422 41.3338 50.6572 41.3602 50.8769C41.3843 51.0966 41.4541 51.3024 41.5648 51.4944C41.6779 51.6863 41.8247 51.8528 42.0051 51.9892C42.1856 52.1257 42.3877 52.2228 42.6091 52.2806C42.8305 52.3407 43.0542 52.3569 43.2828 52.3269C43.5114 52.2991 43.7256 52.2321 43.9253 52.1211C44.1226 52.0101 44.2935 51.8667 44.433 51.6932C44.5726 51.5175 44.6712 51.3209 44.729 51.1082L51.7143 27.0027C51.7745 26.7922 51.7913 26.5772 51.7649 26.3598C51.736 26.1424 51.6662 25.9389 51.5555 25.7493C51.4424 25.5574 51.2981 25.3955 51.1176 25.2591C50.9371 25.1249 50.7374 25.0278 50.5184 24.97Z" fill="white"/>
<path d="M23.0029 6.54169C22.784 6.54169 22.565 6.5625 22.3508 6.60181C22.1343 6.64344 21.9249 6.70356 21.7228 6.7845C21.5183 6.86544 21.3258 6.96487 21.1429 7.0805C20.96 7.19844 20.7916 7.33025 20.6352 7.48056C20.4812 7.62856 20.3416 7.79044 20.2189 7.96619C20.0962 8.14194 19.9951 8.32694 19.9109 8.52119C19.8267 8.71544 19.7617 8.91662 19.7184 9.12244C19.6751 9.33056 19.6534 9.53869 19.6534 9.74912C19.6534 9.95956 19.6751 10.17 19.7184 10.3758C19.7617 10.5816 19.8243 10.7828 19.9085 10.9794C19.9927 11.1736 20.0938 11.3586 20.2165 11.5344C20.3392 11.7078 20.4764 11.872 20.6328 12.02C20.7868 12.1703 20.9576 12.3021 21.1381 12.4201C21.321 12.538 21.5135 12.6374 21.718 12.7184C21.9201 12.797 22.1295 12.8594 22.346 12.9011C22.5602 12.9427 22.7792 12.9635 22.9981 12.9635C23.2171 12.9635 23.4361 12.9427 23.6502 12.9011C23.8668 12.8617 24.0761 12.7993 24.2783 12.7207C24.4828 12.6397 24.6753 12.5403 24.8582 12.4224C25.041 12.3067 25.2095 12.1726 25.3659 12.0246C25.5199 11.8766 25.6594 11.7147 25.7822 11.539C25.9049 11.3632 26.0083 11.1782 26.0926 10.984C26.1768 10.7897 26.2393 10.5886 26.2827 10.3804C26.326 10.1746 26.3476 9.9665 26.3476 9.75606C26.3476 9.54331 26.326 9.33519 26.2827 9.12937C26.2418 8.92125 26.1768 8.72237 26.0926 8.52581C26.0083 8.33156 25.9073 8.14656 25.7846 7.97081C25.6618 7.79506 25.5247 7.63319 25.3683 7.48519C25.2143 7.33487 25.0434 7.20306 24.863 7.08512C24.6801 6.96719 24.4876 6.86775 24.2831 6.78681C24.0809 6.70587 23.8716 6.64575 23.655 6.60412C23.4409 6.5625 23.2219 6.54169 23.0029 6.54169ZM22.9139 9.75606C22.9187 9.70519 22.9476 9.67975 23.0005 9.67975C23.0559 9.67975 23.0848 9.70519 23.0896 9.75606C23.092 9.84625 22.9139 9.84394 22.9139 9.75606Z" fill="white"/>
<path d="M11.4891 6.54169C11.2677 6.54169 11.0511 6.5625 10.8346 6.60181C10.6204 6.64344 10.4111 6.70587 10.2065 6.7845C10.0044 6.86544 9.81191 6.96487 9.62903 7.08281C9.44616 7.19844 9.27772 7.33256 9.12131 7.48056C8.96731 7.63087 8.82775 7.79275 8.70503 7.9685C8.58231 8.14194 8.48125 8.32694 8.39703 8.5235C8.31281 8.71775 8.24784 8.91894 8.20453 9.12475C8.16362 9.33056 8.14197 9.541 8.14197 9.75144C8.14197 9.96187 8.16122 10.17 8.20453 10.3781C8.24784 10.5839 8.31041 10.7851 8.39462 10.9794C8.47884 11.1736 8.58231 11.3586 8.70503 11.5344C8.82534 11.7101 8.96491 11.872 9.12131 12.0223C9.27531 12.1703 9.44375 12.3044 9.62662 12.4201C9.8095 12.538 10.002 12.6374 10.2041 12.7184C10.4087 12.7993 10.618 12.8594 10.8322 12.9011C11.0487 12.9427 11.2653 12.9635 11.4867 12.9635C11.7056 12.9635 11.9222 12.9427 12.1387 12.9011C12.3529 12.8594 12.5622 12.7993 12.7668 12.7184C12.9689 12.6397 13.1614 12.5403 13.3443 12.4224C13.5272 12.3067 13.698 12.1726 13.852 12.0246C14.0084 11.8743 14.148 11.7124 14.2683 11.539C14.391 11.3632 14.4945 11.1782 14.5787 10.984C14.6629 10.7897 14.7279 10.5886 14.7688 10.3804C14.8121 10.1746 14.8337 9.9665 14.8337 9.75606C14.8337 9.54331 14.8145 9.33519 14.7712 9.12937C14.7279 8.92125 14.6653 8.72006 14.5811 8.52581C14.4969 8.33156 14.3934 8.14656 14.2707 7.97081C14.148 7.79506 14.0108 7.63319 13.8544 7.48287C13.7004 7.33487 13.5296 7.20075 13.3467 7.08281C13.1638 6.96719 12.9713 6.86775 12.7692 6.78681C12.5671 6.70587 12.3577 6.64575 12.1412 6.60412C11.9246 6.5625 11.708 6.54169 11.4891 6.54169ZM11.4 9.75606C11.4048 9.70519 11.4361 9.67975 11.4891 9.67975C11.542 9.67975 11.5709 9.70519 11.5781 9.75606C11.5781 9.84394 11.4 9.84625 11.4 9.75606Z" fill="white"/>
<path d="M56.1033 29.0885C55.9421 28.9336 55.7568 28.8157 55.5475 28.7301C55.3357 28.6469 55.1168 28.6052 54.8882 28.6052C54.662 28.6052 54.443 28.6469 54.2313 28.7301C54.0219 28.8134 53.8342 28.9336 53.6754 29.0885C53.5142 29.2435 53.3891 29.4215 53.3024 29.6227C53.2158 29.8262 53.1725 30.0343 53.1725 30.254C53.1725 30.4737 53.2158 30.6818 53.3024 30.8853C53.3891 31.0865 53.5142 31.2646 53.6754 31.4195L61.1781 38.616L53.6754 45.8125C53.5094 45.9652 53.3819 46.1455 53.2904 46.3467C53.199 46.5502 53.1533 46.763 53.1509 46.9827C53.1484 47.2047 53.1918 47.4174 53.2784 47.6209C53.3674 47.8267 53.4925 48.0071 53.6538 48.162C53.8174 48.3193 54.0051 48.4395 54.2192 48.5228C54.431 48.606 54.6524 48.6477 54.8834 48.6453C55.1144 48.643 55.3357 48.5991 55.5475 48.5112C55.7592 48.4257 55.9445 48.3008 56.1033 48.1435L64.8212 39.7769C64.98 39.622 65.1051 39.4439 65.1917 39.2427C65.2784 39.0392 65.3241 38.8311 65.3241 38.6114C65.3241 38.394 65.2784 38.1836 65.1917 37.9801C65.1051 37.7789 64.98 37.6008 64.8212 37.4459L56.1033 29.0885Z" fill="white"/>
</svg>
