<svg width="74" height="75" viewBox="0 0 74 75" fill="none" xmlns="http://www.w3.org/2000/svg">
<path d="M70.6562 14.2336C70.6068 14.1154 70.5515 13.9991 70.4902 13.8868C70.427 13.7746 70.3578 13.6664 70.2828 13.5621C70.2077 13.4599 70.1267 13.3597 70.0397 13.2675C69.9528 13.1733 69.8599 13.0851 69.7612 13.0029C69.6643 12.9207 69.5616 12.8445 69.4549 12.7764C69.3482 12.7062 69.2376 12.6441 69.123 12.588C69.0084 12.5318 68.8899 12.4837 68.7693 12.4436C68.6488 12.4016 68.5283 12.3675 68.4038 12.3414C68.2794 12.3154 68.1529 12.2973 68.0265 12.2873C67.9 12.2773 67.7736 12.2753 67.6471 12.2793C67.5187 12.2853 67.3942 12.2973 67.2678 12.3194C67.1433 12.3394 67.0188 12.3695 66.8983 12.4056C66.7758 12.4416 66.6553 12.4837 66.5387 12.5358C66.4222 12.586 66.3095 12.6441 66.2009 12.7102C66.0902 12.7744 65.9855 12.8465 65.8848 12.9247C65.784 13.0029 65.6872 13.0871 65.5963 13.1773L58.4955 20.3372L54.8878 19.357L53.8762 15.6488L60.979 8.49087C61.3445 8.11203 61.5994 7.66905 61.7456 7.15992C61.8918 6.65079 61.9115 6.13565 61.8029 5.6165C61.7001 5.09734 61.4769 4.63432 61.1351 4.23142C60.7933 3.82853 60.3784 3.53588 59.8864 3.35348C59.1001 3.03677 58.2959 2.7762 57.476 2.56974C56.6541 2.36328 55.8243 2.21294 54.9826 2.11874C54.1429 2.02252 53.2993 1.98644 52.4537 2.00448C51.6081 2.02453 50.7684 2.1007 49.9326 2.235C49.0969 2.36729 48.275 2.5557 47.463 2.80025C46.6529 3.04479 45.8626 3.34345 45.0901 3.69423C44.3176 4.04501 43.5727 4.4479 42.8536 4.89891C42.1364 5.35191 41.4488 5.84901 40.7968 6.39422C40.1428 6.93943 39.5284 7.52473 38.9515 8.15413C38.3746 8.78152 37.8431 9.44499 37.3531 10.1445C36.8651 10.8441 36.4225 11.5737 36.0294 12.3334C35.6362 13.0931 35.2944 13.8768 35.0039 14.6826C34.7135 15.4884 34.4764 16.3102 34.2946 17.1481C34.1109 17.9859 33.9845 18.8318 33.9133 19.6857C33.8402 20.5416 33.8264 21.3975 33.8659 22.2534C33.9074 23.1113 34.0042 23.9612 34.1563 24.8051L28.0059 31.0469L24.4732 34.6329C23.6415 34.4785 22.8037 34.3803 21.9601 34.3382C21.1145 34.2961 20.2708 34.3122 19.4292 34.3843C18.5855 34.4565 17.7518 34.5848 16.9259 34.7692C16.102 34.9556 15.292 35.1941 14.4977 35.4888C13.7035 35.7834 12.931 36.1302 12.1841 36.5291C11.4353 36.928 10.7162 37.375 10.0266 37.8721C9.33512 38.3672 8.68115 38.9084 8.06274 39.4937C7.44433 40.077 6.86544 40.7003 6.33002 41.3638C5.79262 42.0273 5.30066 42.7228 4.85611 43.4504C4.4096 44.1801 4.01445 44.9357 3.66869 45.7195C3.32294 46.5012 3.02855 47.303 2.78752 48.1268C2.54647 48.9486 2.36075 49.7825 2.23035 50.6304C2.09996 51.4782 2.02488 52.3301 2.00512 53.188C1.98536 54.0459 2.0229 54.9018 2.11576 55.7537C2.20862 56.6056 2.35878 57.4495 2.56228 58.2813C2.76578 59.1132 3.02263 59.929 3.33479 60.7268C3.51261 61.2259 3.79909 61.6508 4.19819 61.9976C4.59532 62.3444 5.05171 62.5689 5.5654 62.6711C6.07712 62.7893 6.58489 62.7753 7.0887 62.627C7.59251 62.4807 8.02915 62.2181 8.39862 61.8412L15.4579 54.6292L19.115 55.6575L20.0792 59.3217L13.008 66.5196C12.9191 66.6118 12.8361 66.708 12.7591 66.8103C12.682 66.9125 12.6109 67.0207 12.5457 67.131C12.4825 67.2412 12.4252 67.3575 12.3738 67.4757C12.3244 67.594 12.2809 67.7143 12.2454 67.8386C12.2098 67.9608 12.1802 68.0871 12.1604 68.2134C12.1387 68.3417 12.1268 68.4679 12.1209 68.5982C12.115 68.7265 12.117 68.8548 12.1288 68.9831C12.1387 69.1114 12.1565 69.2397 12.1822 69.3659C12.2078 69.4922 12.2395 69.6145 12.2809 69.7368C12.3205 69.859 12.3699 69.9793 12.4232 70.0956C12.4785 70.2118 12.5398 70.3241 12.6089 70.4323C12.6781 70.5405 12.7531 70.6448 12.8342 70.743C12.9152 70.8432 13.0001 70.9354 13.093 71.0256C13.1858 71.1138 13.2826 71.196 13.3854 71.2722C13.4881 71.3483 13.5948 71.4185 13.7055 71.4806C13.8161 71.5448 13.9287 71.6009 14.0473 71.649C16.3095 72.545 18.6547 72.994 21.0829 73C21.4306 73 21.7803 72.992 22.128 72.9739C22.4758 72.9539 22.8235 72.9258 23.1693 72.8877C23.515 72.8497 23.8608 72.8016 24.2045 72.7454C24.5483 72.6873 24.8901 72.6212 25.2299 72.545C25.5718 72.4688 25.9096 72.3826 26.2435 72.2864C26.5794 72.1922 26.9133 72.088 27.2432 71.9737C27.5732 71.8595 27.8992 71.7372 28.2232 71.6049C28.5452 71.4746 28.8653 71.3323 29.1814 71.184C29.4975 71.0336 29.8077 70.8753 30.116 70.7089C30.4222 70.5405 30.7245 70.3662 31.0228 70.1817C31.3192 69.9973 31.6116 69.8069 31.9001 69.6065C32.1865 69.406 32.4691 69.1976 32.7437 68.9831C33.0203 68.7666 33.291 68.5421 33.5537 68.3116C33.8185 68.0811 34.0753 67.8426 34.3263 67.598C34.5772 67.3535 34.8222 67.1009 35.0593 66.8423C35.2964 66.5838 35.5275 66.3172 35.7488 66.0466C35.972 65.774 36.1874 65.4974 36.3968 65.2127C36.6043 64.9301 36.8038 64.6415 36.9975 64.3468C37.1891 64.0501 37.3729 63.7515 37.5487 63.4468C37.7245 63.1401 37.8925 62.8314 38.0525 62.5167C38.2125 62.202 38.3627 61.8833 38.505 61.5606C38.6472 61.2379 38.7796 60.9112 38.904 60.5824C39.0285 60.2517 39.1451 59.919 39.2498 59.5822C39.3565 59.2455 39.4533 58.9047 39.5422 58.564C39.6311 58.2212 39.7082 57.8764 39.7773 57.5317C39.8485 57.1849 39.9077 56.8361 39.9591 56.4874C40.0085 56.1366 40.05 55.7858 40.0816 55.433C40.1132 55.0822 40.1349 54.7295 40.1468 54.3767C40.1606 54.0219 40.1626 53.6691 40.1567 53.3163C40.1488 52.9615 40.133 52.6088 40.1073 52.256C40.0816 51.9032 40.046 51.5524 40.0026 51.2016C39.9571 50.8509 39.9038 50.5021 39.8386 50.1553L45.9772 43.9816L49.4664 40.3816C50.3001 40.538 51.1398 40.6382 51.9874 40.6803C52.833 40.7244 53.6786 40.7104 54.5243 40.6382C55.3679 40.566 56.2056 40.4378 57.0334 40.2533C57.8613 40.0689 58.6733 39.8284 59.4695 39.5337C60.2658 39.2391 61.0402 38.8923 61.791 38.4934C62.5418 38.0946 63.2629 37.6456 63.9545 37.1485C64.646 36.6514 65.3039 36.1101 65.9243 35.5228C66.5447 34.9375 67.1235 34.3122 67.6629 33.6487C68.2003 32.9832 68.6923 32.2857 69.1388 31.554C69.5873 30.8244 69.9824 30.0667 70.3302 29.281C70.6779 28.4973 70.9703 27.6915 71.2113 26.8676C71.4544 26.0418 71.6401 25.206 71.7705 24.3561C71.9009 23.5062 71.976 22.6503 71.9957 21.7904C72.0135 20.9305 71.976 20.0746 71.8811 19.2187C71.7883 18.3648 71.6381 17.5189 71.4326 16.6851C71.2272 15.8512 70.9683 15.0334 70.6562 14.2336Z" stroke="#4ECCA3" stroke-width="4" stroke-linecap="round" stroke-linejoin="round"/>
</svg>
