<svg width="36" height="27" viewBox="0 0 36 27" fill="none" xmlns="http://www.w3.org/2000/svg">
<mask id="mask0_2797_541" style="mask-type:luminance" maskUnits="userSpaceOnUse" x="0" y="0" width="36" height="27">
<path d="M0 0H36V27H0V0Z" fill="white"/>
</mask>
<g mask="url(#mask0_2797_541)">
<path d="M22.3917 16.2349C22.3917 14.1171 24.2178 12.3944 26.4629 12.3944H30.5341V7.59378C30.5341 7.06411 30.0778 6.63365 29.5163 6.63365H26.4629V3.75327C26.4629 3.22359 26.0066 2.79314 25.4451 2.79314H3.05341C1.3698 2.79314 0 4.08531 0 5.67352V22.9559C0 24.5441 1.3698 25.8362 3.05341 25.8362H29.5163C30.0778 25.8362 30.5341 25.4058 30.5341 24.8761V20.0755H26.4629C24.2178 20.0755 22.3917 18.3528 22.3917 16.2349ZM2.03561 5.67352C2.03561 5.14385 2.49193 4.7134 3.05341 4.7134H24.4273V6.63365H3.05341C2.49193 6.63365 2.03561 6.2032 2.03561 5.67352Z" fill="#F7F7F7"/>
</g>
</svg>
